<svg xmlns="http://www.w3.org/2000/svg" width="417.2" height="396.9" viewBox="0 0 417.2 396.9" overflow="visible"><switch><g><path fill="#FDE579" d="M416.35 151.95l.6-.6-156.4-3.1-52.3-148-51.3 148-156.7 3.1.6.6 124.2 94.2-45.1 150.5 1.3-.6 127-89.5h.7l128.9 90.1-46-150.5 124.5-94.2"/><path fill="#FC0" d="M416.35 151.95l.6-.6-156.4-3.1-51.3 70.7 207.1-67M208.55 1.15l-.3-.9-51.3 148 51.6 71V1.15m.4 218.1v.3l128.9 177.1-46-150.5-82.9-26.9m-.7 87.3h.3v-86.7l-127.3 176.2 127-89.5"/><path fill="#FC0" d="M125.05 246.15l83.5-26.9-207.7-67.3 124.2 94.2"/><path fill="none" stroke="#FC0" stroke-width=".5" stroke-linecap="round" stroke-linejoin="round" d="M416.35 151.95l-124.5 94.2 46 150.5-128.9-90.1h-.7l-127 89.5-1.3.6 45.1-150.5-124.2-94.2-.6-.6 156.7-3.1 51.3-148 .3.9 52 147.1 156.4 3.1-.6.6"/></g></switch></svg>